<svg xmlns="http://www.w3.org/2000/svg" viewBox="0 0 172 275" width="172" height="275">
<rect width="100%" height="100%" fill="#000000"/>
<path d="M 49.00 199.50 L 45.50 196.00 L 46.50 191.00 L 39.50 179.00 L 40.50 176.00 L 64.00 146.50 L 79.50 147.00 L 66.50 142.00 L 61.50 119.00 L 86.50 111.00 L 69.00 114.50 L 68.00 116.50 L 53.00 114.50 L 41.50 99.00 L 34.50 82.00 L 23.50 75.00 L 28.00 68.50 L 34.00 65.50 L 44.50 73.00 L 42.50 76.00 L 44.50 80.00 L 62.00 101.50 L 67.00 97.50 L 97.00 86.50 L 100.00 86.50 L 106.50 92.00 L 108.50 96.00 L 108.50 110.00 L 104.50 127.00 L 106.50 140.00 L 101.50 145.00 L 107.50 148.00 L 112.50 158.00 L 124.50 195.00 L 123.00 197.50 L 110.00 191.50 L 101.00 192.50 L 77.00 165.50 L 80.50 170.00 L 80.50 174.00 L 49.00 199.50 Z" fill="#D4AF37" stroke="none"/>
<path d="M 149.00 262.50 L 140.50 260.00 L 140.50 256.00 L 145.50 249.00 L 141.00 249.50 L 115.50 223.00 L 127.50 213.00 L 113.00 219.50 L 109.00 218.50 L 109.00 215.50 L 117.50 211.00 L 105.00 214.50 L 97.50 203.00 L 97.50 198.00 L 101.00 194.50 L 111.00 193.50 L 122.00 198.50 L 138.50 215.00 L 160.50 250.00 L 159.50 255.00 L 149.00 262.50 Z" fill="#D4AF37" stroke="none"/>
<path d="M 30.00 261.50 L 14.00 261.50 L 9.50 259.00 L 9.50 256.00 L 24.50 247.00 L 23.50 207.00 L 39.50 206.00 L 29.00 205.50 L 22.50 201.00 L 25.00 197.50 L 31.50 198.00 L 23.50 195.00 L 26.50 181.00 L 31.00 177.50 L 36.00 177.50 L 41.50 184.00 L 44.50 193.00 L 45.50 217.00 L 42.50 231.00 L 42.50 258.00 L 30.00 261.50 Z" fill="#D4AF37" stroke="none"/>
<path d="M 63.00 97.50 L 60.50 97.00 L 49.50 82.00 L 76.50 78.00 L 76.50 72.00 L 71.50 71.00 L 71.50 60.00 L 79.00 50.50 L 92.00 48.50 L 104.00 60.50 L 110.50 63.00 L 110.00 65.50 L 88.50 68.00 L 102.50 69.00 L 101.50 76.00 L 94.00 86.50 L 89.00 85.50 L 63.00 97.50 Z" fill="#D4AF37" stroke="none"/>
<path d="M 47.00 70.50 L 38.00 64.50 L 37.50 62.00 L 56.50 41.00 L 78.50 11.00 L 82.00 9.50 L 87.00 11.50 L 92.50 17.00 L 91.50 22.00 L 72.50 45.00 L 47.00 70.50 Z" fill="#D4AF37" stroke="none"/>
<path d="M 42.00 106.50 L 31.00 101.50 L 23.00 92.50 L 20.00 97.50 L 13.50 94.00 L 23.00 77.50 L 26.00 76.50 L 32.50 82.00 L 42.00 106.50 Z" fill="#D4AF37" stroke="none"/>
<path d="M 27.00 263.50 L 14.50 263.00 L 27.00 263.50 Z" fill="#D4AF37" stroke="none"/>
<path d="M 47.00 204.50 L 47.00 199.50 L 47.00 204.50 Z" fill="#D4AF37" stroke="none"/>
<path d="M 45.00 228.50 L 45.00 223.50 L 45.00 228.50 Z" fill="#D4AF37" stroke="none"/>
<path d="M 62.00 117.50 L 58.50 117.00 L 62.00 117.50 Z" fill="#D4AF37" stroke="none"/>
<path d="M 96.00 202.50 L 96.00 198.50 L 96.00 202.50 Z" fill="#D4AF37" stroke="none"/>
<path d="M 47.00 216.50 L 47.00 212.50 L 47.00 216.50 Z" fill="#D4AF37" stroke="none"/>
<path d="M 46.00 222.50 L 46.00 218.50 L 46.00 222.50 Z" fill="#D4AF37" stroke="none"/>
<path d="M 36.00 262.50 L 32.50 262.00 L 36.00 262.50 Z" fill="#D4AF37" stroke="none"/>
<path d="M 67.00 78.50 L 64.50 78.00 L 67.00 78.50 Z" fill="#D4AF37" stroke="none"/>
<path d="M 62.00 79.50 L 59.50 79.00 L 62.00 79.50 Z" fill="#D4AF37" stroke="none"/>
<path d="M 55.00 80.50 L 52.50 80.00 L 55.00 80.50 Z" fill="#D4AF37" stroke="none"/>
<path d="M 107.00 124.50 L 107.00 121.50 L 107.00 124.50 Z" fill="#D4AF37" stroke="none"/>
<path d="M 18.00 83.50 L 18.00 81.50 L 18.00 83.50 Z" fill="#D4AF37" stroke="none"/>
<path d="M 79.00 92.50 L 77.50 92.00 L 79.00 92.50 Z" fill="#D4AF37" stroke="none"/>
<path d="M 89.50 110.00 L 87.50 110.00 L 89.50 110.00 Z" fill="#D4AF37" stroke="none"/>
<path d="M 107.00 137.50 L 107.00 135.50 L 107.00 137.50 Z" fill="#D4AF37" stroke="none"/>
<path d="M 112.00 155.50 L 112.00 153.50 L 112.00 155.50 Z" fill="#D4AF37" stroke="none"/>
<path d="M 113.00 157.50 L 113.00 155.50 L 113.00 157.50 Z" fill="#D4AF37" stroke="none"/>
<path d="M 123.00 188.50 L 123.00 186.50 L 123.00 188.50 Z" fill="#D4AF37" stroke="none"/>
<path d="M 44.00 189.50 L 44.00 187.50 L 44.00 189.50 Z" fill="#D4AF37" stroke="none"/>
<path d="M 124.00 191.50 L 124.00 189.50 L 124.00 191.50 Z" fill="#D4AF37" stroke="none"/>
<path d="M 45.00 192.50 L 45.00 190.50 L 45.00 192.50 Z" fill="#D4AF37" stroke="none"/>
<path d="M 118.00 219.50 L 116.50 219.00 L 118.00 219.50 Z" fill="#D4AF37" stroke="none"/>
<path d="M 115.00 220.50 L 113.50 220.00 L 115.00 220.50 Z" fill="#D4AF37" stroke="none"/>
<path d="M 161.00 248.50 L 161.00 246.50 L 161.00 248.50 Z" fill="#D4AF37" stroke="none"/>
<path d="M 161.00 254.50 L 161.00 252.50 L 161.00 254.50 Z" fill="#D4AF37" stroke="none"/>
<path d="M 144.00 263.50 L 142.50 263.00 L 144.00 263.50 Z" fill="#D4AF37" stroke="none"/>
<path d="M 151.00 263.50 L 149.50 263.00 L 151.00 263.50 Z" fill="#D4AF37" stroke="none"/>
</svg>