<svg xmlns="http://www.w3.org/2000/svg" viewBox="0 0 146 276" width="146" height="276">
<rect width="100%" height="100%" fill="#000000"/>
<path d="M 33.00 260.50 L 23.00 260.50 L 21.50 255.00 L 32.50 243.00 L 31.50 232.00 L 40.50 132.00 L 42.00 128.50 L 59.50 128.00 L 43.00 125.50 L 41.50 123.00 L 40.50 80.00 L 37.00 91.50 L 24.00 88.50 L 22.50 86.00 L 28.50 67.00 L 35.00 56.50 L 55.00 48.50 L 66.00 59.50 L 78.00 47.50 L 96.50 57.00 L 104.50 80.00 L 104.00 87.50 L 92.00 91.50 L 89.50 80.00 L 88.50 126.00 L 92.50 147.00 L 93.50 181.00 L 93.50 240.00 L 91.50 243.00 L 103.50 256.00 L 99.00 259.50 L 82.00 258.50 L 77.50 256.00 L 78.50 245.00 L 76.50 243.00 L 70.50 174.00 L 66.00 149.50 L 47.50 246.00 L 45.50 247.00 L 46.50 257.00 L 33.00 260.50 Z" fill="#D4AF37" stroke="none"/>
<path d="M 118.00 98.50 L 107.50 98.00 L 107.50 86.00 L 117.50 33.00 L 119.00 30.50 L 128.00 30.50 L 133.00 32.50 L 134.50 37.00 L 122.50 95.00 L 118.00 98.50 Z" fill="#D4AF37" stroke="none"/>
<path d="M 22.00 156.50 L 18.00 156.50 L 13.50 153.00 L 11.50 139.00 L 19.50 98.00 L 21.50 92.00 L 25.00 90.50 L 35.00 93.50 L 35.50 96.00 L 21.50 137.00 L 17.50 142.00 L 17.50 149.00 L 23.50 154.00 L 22.00 156.50 Z" fill="#D4AF37" stroke="none"/>
<path d="M 108.00 134.50 L 102.50 132.00 L 105.50 115.00 L 95.50 109.00 L 91.50 97.00 L 93.00 93.50 L 102.00 90.50 L 105.50 111.00 L 110.00 114.50 L 115.50 115.00 L 111.50 118.00 L 110.50 131.00 L 108.00 134.50 Z" fill="#D4AF37" stroke="none"/>
<path d="M 67.00 49.50 L 63.00 48.50 L 51.50 34.00 L 51.50 21.00 L 55.50 14.00 L 62.00 10.50 L 72.00 11.50 L 79.50 19.00 L 80.50 35.00 L 74.50 40.00 L 73.50 45.00 L 67.00 49.50 Z" fill="#D4AF37" stroke="none"/>
<path d="M 116.00 113.50 L 109.00 112.50 L 105.50 107.00 L 106.50 103.00 L 112.00 98.50 L 117.00 99.50 L 121.50 106.00 L 116.00 113.50 Z" fill="#D4AF37" stroke="none"/>
<path d="M 27.00 153.50 L 22.00 152.50 L 18.50 148.00 L 19.50 142.00 L 24.00 138.50 L 31.00 140.50 L 33.50 145.00 L 32.50 149.00 L 27.00 153.50 Z" fill="#D4AF37" stroke="none"/>
<path d="M 91.00 124.50 L 91.00 97.50 L 91.00 124.50 Z" fill="#D4AF37" stroke="none"/>
<path d="M 40.00 119.50 L 40.00 108.50 L 40.00 119.50 Z" fill="#D4AF37" stroke="none"/>
<path d="M 94.00 166.50 L 94.00 156.50 L 94.00 166.50 Z" fill="#D4AF37" stroke="none"/>
<path d="M 81.00 27.50 L 81.00 19.50 L 81.00 27.50 Z" fill="#D4AF37" stroke="none"/>
<path d="M 36.00 172.50 L 36.00 166.50 L 36.00 172.50 Z" fill="#D4AF37" stroke="none"/>
<path d="M 35.00 181.50 L 35.00 175.50 L 35.00 181.50 Z" fill="#D4AF37" stroke="none"/>
<path d="M 98.00 261.50 L 92.50 261.00 L 98.00 261.50 Z" fill="#D4AF37" stroke="none"/>
<path d="M 104.00 96.50 L 104.00 91.50 L 104.00 96.50 Z" fill="#D4AF37" stroke="none"/>
<path d="M 93.00 144.50 L 93.00 139.50 L 93.00 144.50 Z" fill="#D4AF37" stroke="none"/>
<path d="M 34.00 190.50 L 34.00 185.50 L 34.00 190.50 Z" fill="#D4AF37" stroke="none"/>
<path d="M 46.00 127.50 L 42.50 127.00 L 46.00 127.50 Z" fill="#D4AF37" stroke="none"/>
<path d="M 101.00 132.50 L 101.00 128.50 L 101.00 132.50 Z" fill="#D4AF37" stroke="none"/>
<path d="M 11.00 138.50 L 11.00 134.50 L 11.00 138.50 Z" fill="#D4AF37" stroke="none"/>
<path d="M 10.00 143.50 L 10.00 139.50 L 10.00 143.50 Z" fill="#D4AF37" stroke="none"/>
<path d="M 10.00 149.50 L 10.00 145.50 L 10.00 149.50 Z" fill="#D4AF37" stroke="none"/>
<path d="M 71.00 200.50 L 71.00 196.50 L 71.00 200.50 Z" fill="#D4AF37" stroke="none"/>
<path d="M 72.00 209.50 L 72.00 205.50 L 72.00 209.50 Z" fill="#D4AF37" stroke="none"/>
<path d="M 76.00 252.50 L 76.00 248.50 L 76.00 252.50 Z" fill="#D4AF37" stroke="none"/>
<path d="M 87.00 260.50 L 83.50 260.00 L 87.00 260.50 Z" fill="#D4AF37" stroke="none"/>
<path d="M 39.00 261.50 L 35.50 261.00 L 39.00 261.50 Z" fill="#D4AF37" stroke="none"/>
<path d="M 72.00 10.50 L 69.50 10.00 L 72.00 10.50 Z" fill="#D4AF37" stroke="none"/>
<path d="M 114.00 48.50 L 114.00 45.50 L 114.00 48.50 Z" fill="#D4AF37" stroke="none"/>
<path d="M 113.00 52.50 L 113.00 49.50 L 113.00 52.50 Z" fill="#D4AF37" stroke="none"/>
<path d="M 106.00 83.50 L 106.00 80.50 L 106.00 83.50 Z" fill="#D4AF37" stroke="none"/>
<path d="M 91.00 94.50 L 91.00 91.50 L 91.00 94.50 Z" fill="#D4AF37" stroke="none"/>
<path d="M 105.00 100.50 L 105.00 97.50 L 105.00 100.50 Z" fill="#D4AF37" stroke="none"/>
<path d="M 92.00 137.50 L 92.00 134.50 L 92.00 137.50 Z" fill="#D4AF37" stroke="none"/>
<path d="M 27.00 137.50 L 24.50 137.00 L 27.00 137.50 Z" fill="#D4AF37" stroke="none"/>
<path d="M 21.00 158.50 L 18.50 158.00 L 21.00 158.50 Z" fill="#D4AF37" stroke="none"/>
<path d="M 56.00 205.50 L 56.00 202.50 L 56.00 205.50 Z" fill="#D4AF37" stroke="none"/>
<path d="M 55.00 210.50 L 55.00 207.50 L 55.00 210.50 Z" fill="#D4AF37" stroke="none"/>
<path d="M 61.00 10.50 L 59.50 10.00 L 61.00 10.50 Z" fill="#D4AF37" stroke="none"/>
<path d="M 135.00 40.50 L 135.00 38.50 L 135.00 40.50 Z" fill="#D4AF37" stroke="none"/>
<path d="M 115.00 43.50 L 115.00 41.50 L 115.00 43.50 Z" fill="#D4AF37" stroke="none"/>
<path d="M 130.00 63.50 L 130.00 61.50 L 130.00 63.50 Z" fill="#D4AF37" stroke="none"/>
<path d="M 129.00 67.50 L 129.00 65.50 L 129.00 67.50 Z" fill="#D4AF37" stroke="none"/>
<path d="M 128.00 71.50 L 128.00 69.50 L 128.00 71.50 Z" fill="#D4AF37" stroke="none"/>
<path d="M 104.00 75.50 L 104.00 73.50 L 104.00 75.50 Z" fill="#D4AF37" stroke="none"/>
<path d="M 105.00 78.50 L 105.00 76.50 L 105.00 78.50 Z" fill="#D4AF37" stroke="none"/>
<path d="M 24.00 79.50 L 24.00 77.50 L 24.00 79.50 Z" fill="#D4AF37" stroke="none"/>
<path d="M 23.00 81.50 L 23.00 79.50 L 23.00 81.50 Z" fill="#D4AF37" stroke="none"/>
<path d="M 22.00 84.50 L 22.00 82.50 L 22.00 84.50 Z" fill="#D4AF37" stroke="none"/>
<path d="M 39.00 90.50 L 39.00 88.50 L 39.00 90.50 Z" fill="#D4AF37" stroke="none"/>
<path d="M 95.00 92.50 L 93.50 92.00 L 95.00 92.50 Z" fill="#D4AF37" stroke="none"/>
<path d="M 104.00 116.50 L 102.50 116.00 L 104.00 116.50 Z" fill="#D4AF37" stroke="none"/>
<path d="M 102.00 127.50 L 102.00 125.50 L 102.00 127.50 Z" fill="#D4AF37" stroke="none"/>
<path d="M 26.00 128.50 L 26.00 126.50 L 26.00 128.50 Z" fill="#D4AF37" stroke="none"/>
<path d="M 25.00 130.50 L 25.00 128.50 L 25.00 130.50 Z" fill="#D4AF37" stroke="none"/>
<path d="M 12.00 132.50 L 12.00 130.50 L 12.00 132.50 Z" fill="#D4AF37" stroke="none"/>
<path d="M 91.00 132.50 L 91.00 130.50 L 91.00 132.50 Z" fill="#D4AF37" stroke="none"/>
<path d="M 11.00 151.50 L 11.00 149.50 L 11.00 151.50 Z" fill="#D4AF37" stroke="none"/>
<path d="M 66.00 157.50 L 66.00 155.50 L 66.00 157.50 Z" fill="#D4AF37" stroke="none"/>
<path d="M 57.00 200.50 L 57.00 198.50 L 57.00 200.50 Z" fill="#D4AF37" stroke="none"/>
<path d="M 51.00 232.50 L 51.00 230.50 L 51.00 232.50 Z" fill="#D4AF37" stroke="none"/>
<path d="M 50.00 237.50 L 50.00 235.50 L 50.00 237.50 Z" fill="#D4AF37" stroke="none"/>
<path d="M 77.00 246.50 L 77.00 244.50 L 77.00 246.50 Z" fill="#D4AF37" stroke="none"/>
<path d="M 76.00 256.50 L 76.00 254.50 L 76.00 256.50 Z" fill="#D4AF37" stroke="none"/>
<path d="M 81.00 259.50 L 79.50 259.00 L 81.00 259.50 Z" fill="#D4AF37" stroke="none"/>
<path d="M 44.00 260.50 L 42.50 260.00 L 44.00 260.50 Z" fill="#D4AF37" stroke="none"/>
</svg>