<svg xmlns="http://www.w3.org/2000/svg" viewBox="0 0 172 262" width="172" height="262">
<rect width="100%" height="100%" fill="#000000"/>
<path d="M 158.00 251.50 L 145.00 249.50 L 123.50 238.00 L 125.50 228.00 L 129.50 224.00 L 119.50 192.00 L 118.50 176.00 L 92.50 157.00 L 93.00 146.50 L 86.50 170.00 L 78.50 188.00 L 37.00 223.50 L 28.50 228.00 L 23.50 238.00 L 25.50 249.00 L 23.00 251.50 L 19.00 251.50 L 12.50 241.00 L 9.50 217.00 L 14.00 213.50 L 26.00 211.50 L 59.50 178.00 L 61.50 172.00 L 65.50 152.00 L 64.50 129.00 L 67.50 122.00 L 67.50 114.00 L 65.50 106.00 L 57.00 91.50 L 34.50 108.00 L 27.50 135.00 L 30.50 143.00 L 29.50 149.00 L 26.00 152.50 L 20.00 151.50 L 16.50 147.00 L 16.50 142.00 L 22.50 102.00 L 48.00 74.50 L 60.00 68.50 L 63.50 64.00 L 64.50 61.00 L 55.50 51.00 L 54.50 42.00 L 64.00 32.50 L 76.50 31.00 L 73.50 35.00 L 81.50 42.00 L 83.50 52.00 L 82.50 56.00 L 77.50 60.00 L 79.00 64.50 L 107.50 52.00 L 100.50 33.00 L 107.00 26.50 L 114.50 36.00 L 120.50 56.00 L 107.00 71.50 L 95.50 79.00 L 100.50 99.00 L 98.50 126.00 L 113.50 139.00 L 135.50 167.00 L 143.50 229.00 L 159.50 246.00 L 158.00 251.50 Z" fill="#D4AF37" stroke="none"/>
<path d="M 98.00 30.50 L 92.00 29.50 L 86.50 22.00 L 88.50 15.00 L 94.00 11.50 L 101.00 12.50 L 105.50 18.00 L 104.50 25.00 L 98.00 30.50 Z" fill="#D4AF37" stroke="none"/>
<path d="M 66.00 121.50 L 66.00 114.50 L 66.00 121.50 Z" fill="#D4AF37" stroke="none"/>
<path d="M 98.00 10.50 L 93.50 10.00 L 98.00 10.50 Z" fill="#D4AF37" stroke="none"/>
<path d="M 107.00 23.50 L 107.00 18.50 L 107.00 23.50 Z" fill="#D4AF37" stroke="none"/>
<path d="M 83.00 46.50 L 83.00 42.50 L 83.00 46.50 Z" fill="#D4AF37" stroke="none"/>
<path d="M 53.00 47.50 L 53.00 43.50 L 53.00 47.50 Z" fill="#D4AF37" stroke="none"/>
<path d="M 161.00 249.50 L 161.00 245.50 L 161.00 249.50 Z" fill="#D4AF37" stroke="none"/>
<path d="M 143.00 217.50 L 143.00 214.50 L 143.00 217.50 Z" fill="#D4AF37" stroke="none"/>
<path d="M 144.00 224.50 L 144.00 221.50 L 144.00 224.50 Z" fill="#D4AF37" stroke="none"/>
<path d="M 105.00 27.50 L 105.00 25.50 L 105.00 27.50 Z" fill="#D4AF37" stroke="none"/>
<path d="M 103.00 42.50 L 103.00 40.50 L 103.00 42.50 Z" fill="#D4AF37" stroke="none"/>
<path d="M 118.00 43.50 L 118.00 41.50 L 118.00 43.50 Z" fill="#D4AF37" stroke="none"/>
<path d="M 104.00 45.50 L 104.00 43.50 L 104.00 45.50 Z" fill="#D4AF37" stroke="none"/>
<path d="M 119.00 45.50 L 119.00 43.50 L 119.00 45.50 Z" fill="#D4AF37" stroke="none"/>
<path d="M 105.00 48.50 L 105.00 46.50 L 105.00 48.50 Z" fill="#D4AF37" stroke="none"/>
<path d="M 120.00 48.50 L 120.00 46.50 L 120.00 48.50 Z" fill="#D4AF37" stroke="none"/>
<path d="M 33.00 118.50 L 33.00 116.50 L 33.00 118.50 Z" fill="#D4AF37" stroke="none"/>
<path d="M 62.00 162.50 L 62.00 160.50 L 62.00 162.50 Z" fill="#D4AF37" stroke="none"/>
<path d="M 61.00 166.50 L 61.00 164.50 L 61.00 166.50 Z" fill="#D4AF37" stroke="none"/>
<path d="M 137.00 169.50 L 137.00 167.50 L 137.00 169.50 Z" fill="#D4AF37" stroke="none"/>
<path d="M 127.00 223.50 L 127.00 221.50 L 127.00 223.50 Z" fill="#D4AF37" stroke="none"/>
<path d="M 129.00 243.50 L 127.50 243.00 L 129.00 243.50 Z" fill="#D4AF37" stroke="none"/>
</svg>